<svg xmlns="http://www.w3.org/2000/svg" id="Layer_1" viewBox="0 0 680 570.5">
  <style id="style3"/>
  <path id="rect5" fill="#2d8e2d" d="M68.664 94.954h543.158v329.95H68.664z"/>
  <path id="polygon7" stroke-miterlimit="10" fill="#d3e1e8" stroke="#ebeff2" stroke-width="2.06865" d="M340.21 557.366h84.814l21.79-18.342h156.114l11.377-21.583 12.412-4.62 1.724-14.893-10.963-1.793-30.064-70.54-24.203-11.447-66.404 6-1.31-14.964-122.74 4.344.483 17.583H307.25l.48-17.583-122.74-4.344-1.31 14.963-66.402-6-24.204 11.447-30.064 70.54-10.964 1.794 1.724 14.894 12.412 4.62 11.378 21.584h156.114l21.79 18.342z"/>
  <path id="polygon9" stroke-miterlimit="10" fill="#d3e1e8" stroke="#ebeff2" stroke-width="2.06865" d="M407.647 13.31H273.185v12.137h-97.02l-.138-5.654-81.918.07v75.505h110.534v8h112.88V93.85h45.785v9.517h112.878v-8h110.535V19.863l-81.987-.07-.138 5.655h-96.95z"/>
  <path id="rect11" stroke-miterlimit="10" fill="#d3e1e8" stroke="#ebeff2" stroke-width="2.069" d="M16.534 94.61h59.508v329.948H16.534z"/>
  <path id="rect13" stroke-miterlimit="10" opacity=".39" fill="none" stroke="#a2cca6" stroke-width="2.069" d="M108.45 134.396h463.585v250.306H108.45z"/>
  <path id="line15" stroke-miterlimit="10" class="st3" fill="none" stroke="#a2cca6" stroke-width="2.069" d="M110.52 239l27.375 14.688"/>
  <path id="line17" stroke-miterlimit="10" class="st3" fill="none" stroke="#a2cca6" stroke-width="2.069" d="M137.895 266.376l-27.375 14.618"/>
  <path id="line19" stroke-miterlimit="10" class="st3" fill="none" stroke="#a2cca6" stroke-width="2.069" d="M124.242 246.655v27.03"/>
  <path id="line21" stroke-miterlimit="10" class="st3" fill="none" stroke="#a2cca6" stroke-width="2.069" d="M138.585 135.43v248.238"/>
  <path id="line23" stroke-miterlimit="10" class="st3" fill="none" stroke="#a2cca6" stroke-width="2.069" d="M340.002 135.43v248.238"/>
  <path id="line25" stroke-miterlimit="10" class="st3" fill="none" stroke="#a2cca6" stroke-width="2.069" d="M569.69 239l-27.374 14.688"/>
  <path id="line27" stroke-miterlimit="10" class="st3" fill="none" stroke="#a2cca6" stroke-width="2.069" d="M542.316 266.376l27.375 14.618"/>
  <path id="line29" stroke-miterlimit="10" class="st3" fill="none" stroke="#a2cca6" stroke-width="2.069" d="M555.97 246.655v27.03"/>
  <path id="line31" stroke-miterlimit="10" class="st3" fill="none" stroke="#a2cca6" stroke-width="2.069" d="M541.626 135.43v248.238"/>
  <path id="rect33" stroke-miterlimit="10" fill="#c4014b" stroke="#ebeff2" stroke-width=".69" d="M308.076 465.587h64.404v91.78h-64.404z"/>
  <path id="polygon35" stroke-miterlimit="10" fill="#c4014b" stroke="#ebeff2" d="M308.076 511.51h-68.334v32.617l15.72 13.24h52.614z" stroke-width=".68955"/>
  <path id="polygon37" stroke-miterlimit="10" fill="#c4014b" stroke="#ebeff2" d="M440.746 543.85v-32.34H372.41v45.856h52.27z" stroke-width=".68955"/>
  <path id="rect39" stroke-miterlimit="10" fill="#bebebe" stroke="#ebeff2" stroke-width=".69" d="M239.742 465.587h68.334v45.855h-68.334z"/>
  <path id="rect41" stroke-miterlimit="10" fill="#bebebe" stroke="#ebeff2" stroke-width=".69" d="M372.41 465.587h68.335v45.855H372.41z"/>
  <path id="polygon43" stroke-miterlimit="10" fill="#bebebe" stroke="#ebeff2" d="M239.742 465.587H185.13v73.437h48.544l6.068 5.103z" stroke-width=".68955"/>
  <path id="polygon45" stroke-miterlimit="10" fill="#324d5c" stroke="#ebeff2" d="M77.56 539.024h44.13v-73.437H76.044L63.01 496.134l-10.964 1.793 1.724 14.894 12.412 4.62z" stroke-width=".68955"/>
  <path id="rect47" stroke-miterlimit="10" fill="#324d5c" stroke="#ebeff2" stroke-width=".69" d="M121.69 465.587h63.44v73.437h-63.44z"/>
  <path id="polygon49" stroke-miterlimit="10" fill="#bebebe" stroke="#ebeff2" d="M440.746 465.587h54.612v73.437h-48.544l-6.068 5.103z" stroke-width=".68955"/>
  <path id="polygon51" stroke-miterlimit="10" fill="#324d5c" stroke="#ebeff2" d="M602.928 539.024h-44.132v-73.437h45.65l13.03 30.547 10.965 1.793-1.723 14.894-12.412 4.62z" stroke-width=".68955"/>
  <path id="rect53" stroke-miterlimit="10" fill="#324d5c" stroke="#ebeff2" stroke-width=".69" d="M558.764 539.05h-63.44v-73.436h63.44z"/>
  <path id="rect55" stroke-miterlimit="10" fill="#8fc4eb" stroke="#ebeff2" stroke-width=".69" d="M16.534 369.532h59.508v54.957H16.534z"/>
  <path id="rect57" stroke-miterlimit="10" fill="#909a9e" stroke="#ebeff2" stroke-width=".69" d="M16.534 314.506h59.508v54.957H16.534z"/>
  <path id="rect59" stroke-miterlimit="10" fill="#909a9e" stroke="#ebeff2" stroke-width=".69" d="M16.534 259.55h59.508v54.956H16.534z"/>
  <path id="rect61" stroke-miterlimit="10" fill="#909a9e" stroke="#ebeff2" stroke-width=".69" d="M16.534 204.523h59.508v54.957H16.534z"/>
  <path id="rect63" stroke-miterlimit="10" fill="#909a9e" stroke="#ebeff2" stroke-width=".69" d="M16.534 149.566h59.508v54.957H16.534z"/>
  <path id="rect65" stroke-miterlimit="10" fill="#8fc4eb" stroke="#ebeff2" stroke-width=".69" d="M16.534 94.61h59.508v54.956H16.534z"/>
  <path id="rect67" stroke-miterlimit="10" fill="#d3e1e8" stroke="#ebeff2" stroke-width="2.069" d="M605.823 94.61h59.508v329.948h-59.507z"/>
  <path id="rect69" stroke-miterlimit="10" fill="#8fc4eb" stroke="#ebeff2" stroke-width=".69" d="M605.823 342.226h59.508v82.54h-59.507z"/>
  <path id="rect71" stroke-miterlimit="10" fill="#909a9e" stroke="#ebeff2" stroke-width=".69" d="M605.823 259.618h59.508v82.54h-59.507z"/>
  <path id="rect73" stroke-miterlimit="10" fill="#909a9e" stroke="#ebeff2" stroke-width=".69" d="M605.823 177.08h59.508v82.538h-59.507z"/>
  <path id="rect75" stroke-miterlimit="10" fill="#8fc4eb" stroke="#ebeff2" stroke-width=".69" d="M605.823 94.61h59.508v82.538h-59.507z"/>
  <path id="polygon77" stroke-miterlimit="10" fill="#c4014b" stroke="#ebeff2" d="M316.833 40.893V13.31h-43.855l.207 12.137h-11.93v15.446z" stroke-width=".68955"/>
  <path id="polygon79" stroke-miterlimit="10" fill="#bebebe" stroke="#ebeff2" d="M261.256 25.447h-55.923V81.095h55.923z" stroke-width=".68955"/>
  <path id="polygon81" stroke-miterlimit="10" fill="#324d5c" stroke="#ebeff2" d="M205.333 81.094V25.447h-29.168l-.138-5.654H149.41v61.3z" stroke-width=".68955"/>
  <path id="rect83" stroke-miterlimit="10" fill="#324d5c" stroke="#ebeff2" stroke-width=".69" d="M94.11 19.793h55.37v61.232H94.11z"/>
  <path id="polygon85" stroke-miterlimit="10" fill="#c4014b" stroke="#ebeff2" d="M364 13.31v80.54h-15.93V68.545h-15.722l-.07 25.307h-15.445V13.31z" stroke-width=".68955"/>
  <path id="rect87" stroke-miterlimit="10" fill="#bebebe" stroke="#ebeff2" stroke-width=".69" d="M261.255 40.893h55.578v48.613h-55.578z"/>
  <path id="polygon89" stroke-miterlimit="10" fill="#c4014b" stroke="#ebeff2" d="M364 40.893V13.31h43.785l-.207 12.137h11.998v15.446z" stroke-width=".68955"/>
  <path id="polygon91" stroke-miterlimit="10" fill="#bebebe" stroke="#ebeff2" d="M419.576 25.447H475.5V81.095h-55.924z" stroke-width=".68955"/>
  <path id="polygon93" stroke-miterlimit="10" fill="#324d5c" stroke="#ebeff2" d="M475.5 81.094V25.447h29.098l.138-5.654h26.616v61.3z" stroke-width=".68955"/>
  <path id="rect95" stroke-miterlimit="10" fill="#324d5c" stroke="#ebeff2" stroke-width=".69" d="M586.684 81.083h-55.37V19.85h55.37z"/>
  <path id="rect97" stroke-miterlimit="10" fill="#bebebe" stroke="#ebeff2" stroke-width=".69" d="M419.53 89.494h-55.578V40.88h55.578z"/>
</svg>