<?xml version="1.0" encoding="UTF-8" standalone="no"?>
<svg
   xmlns:dc="http://purl.org/dc/elements/1.1/"
   xmlns:cc="http://creativecommons.org/ns#"
   xmlns:rdf="http://www.w3.org/1999/02/22-rdf-syntax-ns#"
   xmlns:svg="http://www.w3.org/2000/svg"
   xmlns="http://www.w3.org/2000/svg"
   xmlns:sodipodi="http://sodipodi.sourceforge.net/DTD/sodipodi-0.dtd"
   xmlns:inkscape="http://www.inkscape.org/namespaces/inkscape"
   id="Layer_1"
   viewBox="0 0 680 570.5"
   version="1.1"
   inkscape:version="0.91 r13725"
   sodipodi:docname="Harlequins2.svg">
  <metadata
     id="metadata3792">
    <rdf:RDF>
      <cc:Work
         rdf:about="">
        <dc:format>image/svg+xml</dc:format>
        <dc:type
           rdf:resource="http://purl.org/dc/dcmitype/StillImage" />
        <dc:title></dc:title>
      </cc:Work>
    </rdf:RDF>
  </metadata>
  <defs
     id="defs3790" />
  <sodipodi:namedview
     pagecolor="#ffffff"
     bordercolor="#666666"
     borderopacity="1"
     objecttolerance="10"
     gridtolerance="10"
     guidetolerance="10"
     inkscape:pageopacity="0"
     inkscape:pageshadow="2"
     inkscape:window-width="1397"
     inkscape:window-height="876"
     id="namedview3788"
     showgrid="false"
     inkscape:zoom="1.2147239"
     inkscape:cx="484.02114"
     inkscape:cy="285.25"
     inkscape:window-x="43"
     inkscape:window-y="24"
     inkscape:window-maximized="1"
     inkscape:current-layer="Layer_1" />
  <style
     id="style3" />
  <rect
     style="fill:#2d8e2d"
     id="rect5"
     width="543.15802"
     height="329.94901"
     x="68.664001"
     y="94.954002" />
  <polygon
     style="fill:#d3e1e8;stroke:#ebeff2;stroke-width:3;stroke-miterlimit:10"
     id="polygon7"
     stroke-miterlimit="10"
     points="486.4,803.9 609.4,803.9 641,777.3 867.4,777.3 883.9,746 901.9,739.3 904.4,717.7 888.5,715.1 844.9,612.8 809.8,596.2 713.5,604.9 711.6,583.2 533.6,589.5 534.3,615 486.4,615 438.6,615 439.3,589.5 261.3,583.2 259.4,604.9 163.1,596.2 128,612.8 84.4,715.1 68.5,717.7 71,739.3 89,746 105.5,777.3 331.9,777.3 363.5,803.9 "
     transform="matrix(0.68955,0,0,0.68955,4.812,3.037)" />
  <polygon
     style="fill:#d3e1e8;stroke:#ebeff2;stroke-width:3;stroke-miterlimit:10"
     id="polygon9"
     stroke-miterlimit="10"
     points="584.2,14.9 486.9,14.9 486.9,14.9 486.7,14.9 486.5,14.9 486.5,14.9 389.2,14.9 389.2,32.5 248.5,32.5 248.3,24.3 129.5,24.4 129.5,133.9 289.8,133.9 289.8,145.5 453.5,145.5 453.5,131.7 486.5,131.7 486.9,131.7 519.9,131.7 519.9,145.5 683.6,145.5 683.6,133.9 843.9,133.9 843.9,24.4 725,24.3 724.8,32.5 584.2,32.5 "
     transform="matrix(0.68955,0,0,0.68955,4.812,3.037)" />
  <rect
     style="fill:#d3e1e8;stroke:#ebeff2;stroke-width:2.06900001;stroke-miterlimit:10"
     id="rect11"
     width="59.507999"
     height="329.94901"
     x="16.534"
     y="94.609001"
     stroke-miterlimit="10" />
  <rect
     style="opacity:0.38999999;fill:none;stroke:#a2cca6;stroke-width:2.06900001;stroke-miterlimit:10"
     id="rect13"
     width="463.58401"
     height="250.306"
     x="108.45099"
     y="134.39601"
     stroke-miterlimit="10" />
  <line
     style="fill:none;stroke:#a2cca6;stroke-width:2.06900001;stroke-miterlimit:10"
     id="line15"
     x1="110.51999"
     x2="137.895"
     y1="239.00101"
     y2="253.688"
     stroke-miterlimit="10"
     class="st3" />
  <line
     style="fill:none;stroke:#a2cca6;stroke-width:2.06900001;stroke-miterlimit:10"
     id="line17"
     x1="137.895"
     x2="110.51999"
     y1="266.37601"
     y2="280.99399"
     stroke-miterlimit="10"
     class="st3" />
  <line
     style="fill:none;stroke:#a2cca6;stroke-width:2.06900001;stroke-miterlimit:10"
     id="line19"
     x1="124.24199"
     x2="124.24199"
     y1="246.655"
     y2="273.685"
     stroke-miterlimit="10"
     class="st3" />
  <line
     style="fill:none;stroke:#a2cca6;stroke-width:2.06900001;stroke-miterlimit:10"
     id="line21"
     x1="138.58501"
     x2="138.58501"
     y1="135.42999"
     y2="383.668"
     stroke-miterlimit="10"
     class="st3" />
  <line
     style="fill:none;stroke:#a2cca6;stroke-width:2.06900001;stroke-miterlimit:10"
     id="line23"
     x1="340.00201"
     x2="340.00201"
     y1="135.42999"
     y2="383.668"
     stroke-miterlimit="10"
     class="st3" />
  <line
     style="fill:none;stroke:#a2cca6;stroke-width:2.06900001;stroke-miterlimit:10"
     id="line25"
     x1="569.69098"
     x2="542.31598"
     y1="239.00101"
     y2="253.688"
     stroke-miterlimit="10"
     class="st3" />
  <line
     style="fill:none;stroke:#a2cca6;stroke-width:2.06900001;stroke-miterlimit:10"
     id="line27"
     x1="542.31598"
     x2="569.69098"
     y1="266.37601"
     y2="280.99399"
     stroke-miterlimit="10"
     class="st3" />
  <line
     style="fill:none;stroke:#a2cca6;stroke-width:2.06900001;stroke-miterlimit:10"
     id="line29"
     x1="555.96899"
     x2="555.96899"
     y1="246.655"
     y2="273.685"
     stroke-miterlimit="10"
     class="st3" />
  <line
     style="fill:none;stroke:#a2cca6;stroke-width:2.06900001;stroke-miterlimit:10"
     id="line31"
     x1="541.62598"
     x2="541.62598"
     y1="135.42999"
     y2="383.668"
     stroke-miterlimit="10"
     class="st3" />
  <rect
     style="fill:#c4014b;stroke:#ebeff2;stroke-width:0.69;stroke-miterlimit:10"
     id="rect33"
     width="64.403999"
     height="91.778999"
     x="308.07599"
     y="465.58701"
     stroke-miterlimit="10" />
  <polygon
     style="fill:#c4014b;stroke:#ebeff2;stroke-miterlimit:10"
     id="polygon35"
     stroke-miterlimit="10"
     points="439.8,737.4 340.7,737.4 340.7,784.7 363.5,803.9 439.8,803.9 "
     transform="matrix(0.68955,0,0,0.68955,4.812,3.037)" />
  <polygon
     style="fill:#c4014b;stroke:#ebeff2;stroke-miterlimit:10"
     id="polygon37"
     stroke-miterlimit="10"
     points="632.2,784.3 632.2,737.4 533.1,737.4 533.1,803.9 608.9,803.9 "
     transform="matrix(0.68955,0,0,0.68955,4.812,3.037)" />
  <rect
     style="fill:#bebebe;stroke:#ebeff2;stroke-width:0.69;stroke-miterlimit:10"
     id="rect39"
     width="68.334"
     height="45.855"
     x="239.742"
     y="465.58701"
     stroke-miterlimit="10" />
  <rect
     style="fill:#bebebe;stroke:#ebeff2;stroke-width:0.69;stroke-miterlimit:10"
     id="rect41"
     width="68.334"
     height="45.855"
     x="372.41101"
     y="465.58701"
     stroke-miterlimit="10" />
  <polygon
     style="fill:#bebebe;stroke:#ebeff2;stroke-miterlimit:10"
     id="polygon43"
     stroke-miterlimit="10"
     points="340.7,670.8 261.5,670.8 261.5,777.3 331.9,777.3 340.7,784.7 "
     transform="matrix(0.68955,0,0,0.68955,4.812,3.037)" />
  <polygon
     style="fill:#324d5c;stroke:#ebeff2;stroke-miterlimit:10"
     id="polygon45"
     stroke-miterlimit="10"
     points="105.5,777.3 169.5,777.3 169.5,670.8 103.3,670.8 84.4,715.1 68.5,717.7 71,739.3 89,746 "
     transform="matrix(0.68955,0,0,0.68955,4.812,3.037)" />
  <rect
     style="fill:#324d5c;stroke:#ebeff2;stroke-width:0.69;stroke-miterlimit:10"
     id="rect47"
     width="63.438999"
     height="73.436996"
     x="121.69099"
     y="465.58701"
     stroke-miterlimit="10" />
  <polygon
     style="fill:#bebebe;stroke:#ebeff2;stroke-miterlimit:10"
     id="polygon49"
     stroke-miterlimit="10"
     points="632.2,670.8 711.4,670.8 711.4,777.3 641,777.3 632.2,784.7 "
     transform="matrix(0.68955,0,0,0.68955,4.812,3.037)" />
  <polygon
     style="fill:#324d5c;stroke:#ebeff2;stroke-miterlimit:10"
     id="polygon51"
     stroke-miterlimit="10"
     points="867.4,777.3 803.4,777.3 803.4,670.8 869.6,670.8 888.5,715.1 904.4,717.7 901.9,739.3 883.9,746 "
     transform="matrix(0.68955,0,0,0.68955,4.812,3.037)" />
  <rect
     style="fill:#324d5c;stroke:#ebeff2;stroke-width:0.69;stroke-miterlimit:10"
     id="rect53"
     width="63.438999"
     height="73.436996"
     x="-558.76398"
     y="-539.05103"
     stroke-miterlimit="10"
     transform="scale(-1,-1)" />
  <rect
     style="fill:#8fc4eb;stroke:#ebeff2;stroke-width:0.69;stroke-miterlimit:10"
     id="rect55"
     width="59.507999"
     height="54.957001"
     x="16.534"
     y="369.53201"
     stroke-miterlimit="10" />
  <rect
     style="fill:#909a9e;stroke:#ebeff2;stroke-width:0.69;stroke-miterlimit:10"
     id="rect57"
     width="59.507999"
     height="54.957001"
     x="16.534"
     y="314.50601"
     stroke-miterlimit="10" />
  <rect
     style="fill:#909a9e;stroke:#ebeff2;stroke-width:0.69;stroke-miterlimit:10"
     id="rect59"
     width="59.507999"
     height="54.957001"
     x="16.534"
     y="259.54901"
     stroke-miterlimit="10" />
  <rect
     style="fill:#909a9e;stroke:#ebeff2;stroke-width:0.69;stroke-miterlimit:10"
     id="rect61"
     width="59.507999"
     height="54.957001"
     x="16.534"
     y="204.52299"
     stroke-miterlimit="10" />
  <rect
     style="fill:#909a9e;stroke:#ebeff2;stroke-width:0.69;stroke-miterlimit:10"
     id="rect63"
     width="59.507999"
     height="54.957001"
     x="16.534"
     y="149.56599"
     stroke-miterlimit="10" />
  <rect
     style="fill:#8fc4eb;stroke:#ebeff2;stroke-width:0.69;stroke-miterlimit:10"
     id="rect65"
     width="59.507999"
     height="54.957001"
     x="16.534"
     y="94.609001"
     stroke-miterlimit="10" />
  <rect
     style="fill:#d3e1e8;stroke:#ebeff2;stroke-width:2.06900001;stroke-miterlimit:10"
     id="rect67"
     width="59.507999"
     height="329.94901"
     x="605.823"
     y="94.609001"
     stroke-miterlimit="10" />
  <rect
     style="fill:#8fc4eb;stroke:#ebeff2;stroke-width:0.69;stroke-miterlimit:10"
     id="rect69"
     width="59.507999"
     height="82.539001"
     x="605.823"
     y="342.22601"
     stroke-miterlimit="10" />
  <rect
     style="fill:#909a9e;stroke:#ebeff2;stroke-width:0.69;stroke-miterlimit:10"
     id="rect71"
     width="59.507999"
     height="82.539001"
     x="605.823"
     y="259.61801"
     stroke-miterlimit="10" />
  <rect
     style="fill:#909a9e;stroke:#ebeff2;stroke-width:0.69;stroke-miterlimit:10"
     id="rect73"
     width="59.507999"
     height="82.539001"
     x="605.823"
     y="177.07899"
     stroke-miterlimit="10" />
  <rect
     style="fill:#8fc4eb;stroke:#ebeff2;stroke-width:0.69;stroke-miterlimit:10"
     id="rect75"
     width="59.507999"
     height="82.539001"
     x="605.823"
     y="94.609001"
     stroke-miterlimit="10" />
  <polygon
     style="fill:#c4014b;stroke:#ebeff2;stroke-miterlimit:10"
     id="polygon77"
     stroke-miterlimit="10"
     points="452.5,54.9 452.5,14.9 388.9,14.9 389.2,32.5 371.9,32.5 371.9,54.9 "
     transform="matrix(0.68955,0,0,0.68955,4.812,3.037)" />
  <polygon
     style="fill:#bebebe;stroke:#ebeff2;stroke-miterlimit:10"
     id="polygon79"
     stroke-miterlimit="10"
     points="371.9,32.5 290.8,32.5 290.8,104.9 290.8,113.2 371.9,113.2 "
     transform="matrix(0.68955,0,0,0.68955,4.812,3.037)" />
  <polygon
     style="fill:#324d5c;stroke:#ebeff2;stroke-miterlimit:10"
     id="polygon81"
     stroke-miterlimit="10"
     points="290.8,113.2 290.8,32.5 248.5,32.5 248.3,24.3 209.7,24.3 209.7,113.2 "
     transform="matrix(0.68955,0,0,0.68955,4.812,3.037)" />
  <rect
     style="fill:#324d5c;stroke:#ebeff2;stroke-width:0.69;stroke-miterlimit:10"
     id="rect83"
     width="55.370998"
     height="61.231998"
     x="94.108994"
     y="19.792999"
     stroke-miterlimit="10" />
  <polygon
     style="fill:#c4014b;stroke:#ebeff2;stroke-miterlimit:10"
     id="polygon85"
     stroke-miterlimit="10"
     points="520.9,14.9 520.9,131.7 497.8,131.7 497.8,95 475,95 474.9,131.7 452.5,131.7 452.5,14.9 "
     transform="matrix(0.68955,0,0,0.68955,4.812,3.037)" />
  <rect
     style="fill:#bebebe;stroke:#ebeff2;stroke-width:0.69;stroke-miterlimit:10"
     id="rect87"
     width="55.577999"
     height="48.612999"
     x="261.255"
     y="40.893002"
     stroke-miterlimit="10" />
  <polygon
     style="fill:#c4014b;stroke:#ebeff2;stroke-miterlimit:10"
     id="polygon89"
     stroke-miterlimit="10"
     points="520.9,54.9 520.9,14.9 584.4,14.9 584.1,32.5 601.5,32.5 601.5,54.9 "
     transform="matrix(0.68955,0,0,0.68955,4.812,3.037)" />
  <polygon
     style="fill:#bebebe;stroke:#ebeff2;stroke-miterlimit:10"
     id="polygon91"
     stroke-miterlimit="10"
     points="601.5,32.5 682.6,32.5 682.6,104.9 682.6,113.2 601.5,113.2 "
     transform="matrix(0.68955,0,0,0.68955,4.812,3.037)" />
  <polygon
     style="fill:#324d5c;stroke:#ebeff2;stroke-miterlimit:10"
     id="polygon93"
     stroke-miterlimit="10"
     points="682.6,113.2 682.6,32.5 724.8,32.5 725,24.3 763.6,24.3 763.6,113.2 "
     transform="matrix(0.68955,0,0,0.68955,4.812,3.037)" />
  <rect
     style="fill:#324d5c;stroke:#ebeff2;stroke-width:0.69;stroke-miterlimit:10"
     id="rect95"
     width="55.370998"
     height="61.231998"
     x="-586.68402"
     y="-81.083"
     stroke-miterlimit="10"
     transform="scale(-1,-1)" />
  <rect
     style="fill:#bebebe;stroke:#ebeff2;stroke-width:0.69;stroke-miterlimit:10"
     id="rect97"
     width="55.577999"
     height="48.612999"
     x="-419.53"
     y="-89.494003"
     stroke-miterlimit="10"
     transform="scale(-1,-1)" />
</svg>
